<?xml version="1.0" standalone="no"?>
<!DOCTYPE svg PUBLIC "-//W3C//DTD SVG 20010904//EN"
 "http://www.w3.org/TR/2001/REC-SVG-20010904/DTD/svg10.dtd">
<svg version="1.0" xmlns="http://www.w3.org/2000/svg"
 width="1583.000000pt" height="864.000000pt" viewBox="0 0 1583.000000 864.000000"
 preserveAspectRatio="xMidYMid meet">

<g transform="translate(0.000000,864.000000) scale(0.100000,-0.100000)"
fill="#000000" stroke="none">
<path d="M12710 8631 c-104 -34 -217 -136 -273 -247 -20 -39 -138 -291 -262
-560 -373 -805 -398 -850 -507 -917 -40 -25 -52 -28 -90 -22 -53 9 -99 54
-117 115 -18 61 -29 181 -41 460 -12 267 -25 351 -68 444 -85 180 -192 200
-323 59 -56 -60 -103 -138 -174 -284 -135 -283 -189 -551 -202 -1009 -7 -254
-1 -325 25 -315 55 22 272 79 371 97 155 30 542 33 691 5 457 -84 826 -273
1130 -577 275 -275 454 -606 536 -992 35 -167 44 -447 20 -622 -29 -203 -101
-440 -185 -604 -16 -32 -18 -43 -9 -47 24 -8 202 -34 308 -46 298 -32 837 7
1117 81 262 69 488 192 558 304 68 110 19 219 -145 325 -108 70 -266 98 -620
111 -262 10 -393 26 -485 62 -114 43 -172 133 -145 223 19 62 71 126 207 251
151 139 243 211 484 377 182 125 239 168 571 434 332 266 597 517 662 626 47
80 80 187 72 235 -10 65 -69 121 -150 143 -94 26 -304 -9 -476 -78 -209 -84
-543 -249 -714 -353 -165 -99 -216 -123 -336 -159 -138 -41 -197 -48 -238 -27
-80 42 -74 92 42 323 96 191 170 310 481 778 241 363 334 528 360 637 32 135
11 248 -56 314 -35 35 -45 38 -103 42 -75 5 -131 -11 -251 -71 -166 -82 -282
-185 -620 -552 -362 -392 -681 -718 -730 -746 -57 -33 -118 -38 -153 -13 -73
51 -71 143 18 705 128 803 124 995 -19 1069 -44 22 -125 33 -161 21z"/>
<path d="M10565 6302 c-568 -254 -984 -736 -1130 -1310 -77 -308 -77 -654 1
-952 50 -190 137 -390 239 -550 203 -316 528 -596 872 -750 612 -273 1355
-233 1917 104 289 174 519 399 690 675 31 50 56 93 56 96 0 3 -9 5 -20 5 -28
0 -344 82 -465 120 -55 18 -155 54 -223 82 l-122 49 -105 -109 c-182 -191
-395 -313 -660 -381 -135 -35 -379 -42 -538 -17 -279 45 -540 180 -738 383
-235 239 -352 521 -353 848 0 147 13 239 55 370 98 309 335 584 635 737 l100
51 -28 96 c-34 112 -74 306 -85 406 -9 82 -14 84 -98 47z"/>
<path d="M11141 5840 c-148 -19 -351 -77 -351 -101 0 -26 140 -352 225 -524
157 -317 287 -499 524 -735 215 -214 437 -379 730 -542 119 -67 102 -72 175
52 110 186 166 390 166 610 0 593 -428 1095 -1039 1220 -115 23 -324 33 -430
20z"/>
<path d="M3030 4482 c-19 -10 -45 -34 -57 -52 l-23 -33 0 -916 c0 -1041 -6
-963 83 -1010 54 -27 95 -24 148 12 74 49 69 -14 67 1004 -3 903 -3 912 -24
939 -51 69 -130 91 -194 56z"/>
<path d="M3620 4482 c-19 -10 -45 -34 -57 -52 l-23 -33 0 -920 c0 -908 0 -920
20 -953 27 -43 99 -78 143 -70 53 10 97 43 117 89 16 34 20 65 20 168 l0 125
116 109 c112 105 116 107 133 89 17 -18 85 -99 340 -404 62 -74 124 -143 139
-152 55 -36 160 -17 196 34 18 25 22 113 7 150 -8 19 -231 307 -423 543 -26
33 -48 62 -48 65 0 3 99 100 221 215 122 116 227 222 235 237 31 60 12 141
-44 182 -38 29 -123 34 -160 10 -26 -17 -194 -173 -592 -548 l-115 -109 -5
571 c-5 557 -6 571 -26 598 -51 69 -130 91 -194 56z"/>
<path d="M84 4376 c-39 -17 -72 -59 -80 -102 -9 -50 19 -118 60 -144 32 -19
49 -20 315 -20 l281 0 0 -772 c0 -876 -5 -821 80 -866 52 -27 103 -24 156 9
67 41 64 5 64 858 l0 771 291 0 c275 0 294 1 324 20 91 56 82 193 -16 242 -31
17 -87 18 -739 18 -567 -1 -711 -3 -736 -14z"/>
<path d="M5497 3940 c-316 -38 -580 -266 -658 -568 -26 -102 -26 -262 0 -364
68 -266 282 -476 557 -549 119 -31 290 -29 407 5 222 66 385 198 481 388 64
128 80 198 80 338 0 139 -16 208 -80 339 -76 154 -224 289 -392 357 -124 50
-264 69 -395 54z m174 -270 c164 -30 319 -168 368 -325 43 -137 35 -257 -24
-383 -91 -193 -296 -302 -501 -267 -103 18 -177 57 -252 131 -79 79 -127 176
-144 289 -30 208 81 419 267 511 103 51 183 63 286 44z"/>
<path d="M1980 3929 c-199 -22 -390 -134 -500 -294 -148 -214 -175 -533 -67
-777 87 -196 266 -344 481 -398 61 -15 113 -20 222 -20 229 0 349 31 469 123
82 63 119 123 119 196 0 126 -124 161 -256 72 -166 -112 -333 -148 -486 -107
-135 37 -247 153 -271 281 l-8 44 466 3 c423 3 470 5 506 21 89 40 122 105
112 220 -21 235 -149 446 -339 555 -121 69 -286 99 -448 81z m170 -264 c93
-12 180 -71 236 -158 22 -33 54 -131 54 -164 0 -10 -77 -13 -381 -13 l-382 0
7 46 c8 61 60 156 109 200 51 47 136 85 206 94 56 7 66 6 151 -5z"/>
<path d="M7105 3926 c-62 -16 -122 -46 -202 -102 -34 -24 -64 -44 -67 -44 -3
0 -6 10 -6 23 0 35 -34 82 -73 100 -70 33 -158 13 -201 -46 -21 -28 -21 -39
-24 -650 l-2 -622 22 -45 c28 -55 74 -83 134 -82 52 0 95 24 120 66 18 29 19
62 24 456 5 421 5 426 29 478 34 75 125 157 199 178 67 20 200 23 258 6 57
-17 118 -73 151 -140 l28 -57 5 -445 c4 -332 8 -451 18 -467 26 -46 78 -75
133 -75 57 0 90 18 127 72 22 33 22 34 22 454 l0 421 25 52 c33 72 105 146
167 173 65 28 181 37 243 20 59 -16 131 -81 170 -152 l30 -53 5 -447 c5 -431
6 -448 26 -474 35 -47 68 -66 116 -66 58 -1 106 26 136 78 l22 39 -2 490 c-3
483 -3 491 -26 545 -67 163 -252 296 -442 320 -180 21 -347 -26 -518 -147
l-62 -45 -55 50 c-113 104 -239 153 -389 151 -50 0 -113 -6 -141 -13z"/>
<path d="M4783 2041 c-24 -11 -51 -34 -63 -53 -19 -31 -20 -50 -20 -370 l0
-338 -64 65 c-164 164 -409 205 -678 115 -126 -42 -193 -83 -283 -174 -88 -88
-137 -171 -175 -291 -31 -99 -39 -291 -16 -405 56 -272 233 -469 496 -552 98
-30 300 -32 395 -4 96 29 184 83 258 158 l67 70 0 -69 c0 -103 42 -158 129
-170 49 -7 109 24 137 70 18 31 19 64 19 949 0 910 0 917 -21 944 -50 68 -112
87 -181 55z m-404 -823 c217 -74 353 -308 312 -536 -41 -228 -237 -401 -456
-402 -231 -1 -435 184 -464 419 -44 354 281 632 608 519z"/>
<path d="M1455 1976 c-43 -19 -75 -58 -86 -103 -13 -58 -11 -1689 2 -1738 6
-21 26 -54 44 -72 29 -29 39 -33 88 -33 46 0 61 5 88 27 62 52 59 12 59 950 0
845 0 857 -21 899 -15 31 -32 48 -63 63 -49 24 -69 25 -111 7z"/>
<path d="M5837 1509 c-317 -36 -580 -264 -658 -567 -26 -102 -26 -262 0 -364
68 -267 281 -476 557 -549 119 -31 290 -29 407 5 152 45 265 113 362 218 345
372 236 950 -222 1181 -123 63 -303 93 -446 76z m193 -270 c240 -55 407 -302
372 -551 -29 -199 -169 -367 -347 -413 -76 -19 -174 -19 -250 0 -226 59 -382
305 -347 548 41 284 307 477 572 416z"/>
<path d="M10337 1509 c-185 -25 -319 -117 -390 -267 -28 -60 -32 -77 -32 -157
0 -80 4 -97 31 -156 71 -149 179 -208 619 -338 172 -50 228 -189 118 -293 -37
-35 -66 -45 -149 -53 -109 -10 -204 14 -373 96 -80 38 -156 69 -173 69 -40 0
-108 -66 -108 -105 0 -102 140 -207 349 -262 130 -34 353 -36 476 -4 143 38
233 112 294 241 24 50 26 66 25 170 -1 139 -16 180 -95 258 -66 65 -148 106
-419 213 -206 81 -239 100 -267 153 -30 58 6 140 78 176 95 49 208 34 384 -48
88 -41 108 -47 167 -47 52 0 73 5 95 21 56 41 35 149 -39 206 -130 99 -390
155 -591 127z"/>
<path d="M8995 1504 c-166 -35 -274 -92 -385 -203 -98 -98 -144 -176 -186
-316 -23 -78 -26 -107 -26 -220 0 -155 21 -246 82 -363 93 -180 233 -295 435
-358 84 -26 101 -28 250 -27 242 1 362 35 489 138 65 54 96 112 96 182 0 119
-113 159 -234 82 -157 -100 -247 -132 -376 -133 -204 -1 -372 125 -404 306
l-7 37 473 3 c467 3 474 3 515 25 87 47 112 111 96 243 -22 174 -82 298 -203
421 -88 88 -199 150 -315 174 -64 13 -251 19 -300 9z m290 -287 c107 -50 182
-149 199 -264 l6 -43 -380 0 -380 0 0 23 c0 80 66 193 145 247 81 56 137 71
250 67 84 -2 110 -7 160 -30z"/>
<path d="M12220 1499 c-199 -25 -340 -116 -340 -219 0 -42 15 -67 52 -86 49
-25 105 -20 215 19 123 44 243 61 327 47 187 -30 250 -94 295 -299 l9 -43 -26
6 c-167 35 -495 34 -641 -3 -165 -42 -243 -103 -310 -241 -33 -69 -36 -84 -39
-181 -3 -77 0 -122 12 -160 60 -209 350 -357 627 -319 158 22 284 79 344 157
l33 43 4 -60 c3 -46 10 -66 29 -86 70 -76 173 -72 231 8 21 30 23 46 26 174 5
170 -14 712 -28 807 -6 38 -20 92 -32 120 -24 55 -95 149 -143 189 -122 102
-404 158 -645 127z m355 -774 c61 -8 134 -20 164 -26 l54 -11 -5 -83 c-10
-152 -99 -287 -224 -335 -51 -21 -77 -24 -189 -24 -116 -1 -136 2 -182 23
-158 71 -203 255 -91 376 45 50 100 72 206 85 103 12 148 11 267 -5z"/>
<path d="M2065 1493 c-37 -10 -63 -34 -79 -74 -14 -34 -16 -117 -16 -667 0
-608 1 -628 20 -660 61 -100 211 -95 262 8 16 32 18 74 18 442 0 393 1 409 22
465 30 82 117 166 195 190 85 26 233 24 294 -4 62 -28 125 -92 158 -162 l26
-56 5 -438 5 -438 42 -40 c38 -35 47 -39 95 -39 63 0 109 24 135 72 17 30 18
69 18 493 0 501 -1 514 -58 635 -42 90 -120 166 -224 217 -111 56 -169 66
-333 61 -155 -6 -196 -18 -325 -98 l-80 -49 -7 41 c-14 78 -89 122 -173 101z"/>
<path d="M7014 1490 c-17 -6 -39 -18 -48 -29 -44 -49 -45 -65 -45 -706 -1
-580 0 -612 19 -652 25 -55 70 -83 134 -83 53 0 103 29 128 73 10 16 14 131
18 447 l5 425 26 56 c32 68 95 134 153 159 59 27 170 44 234 36 112 -13 201
-75 249 -174 l28 -57 5 -435 c5 -398 7 -438 23 -463 62 -95 209 -87 259 13 16
32 18 76 18 470 0 243 -5 464 -10 500 -25 158 -135 303 -283 374 -105 50 -162
59 -324 54 -135 -4 -142 -5 -215 -40 -42 -20 -101 -52 -132 -72 l-56 -36 -6
28 c-12 55 -27 83 -53 97 -38 19 -91 25 -127 15z"/>
<path d="M11329 1467 c-72 -47 -69 -21 -69 -710 0 -668 -2 -644 54 -696 39
-36 119 -41 166 -9 73 49 70 21 70 708 0 566 -1 618 -18 650 -24 48 -75 80
-127 80 -27 0 -54 -8 -76 -23z"/>
</g>
</svg>
